# xmcd
#
# Track frame offsets:
# 150
# 8745
# 19190
# 30680
# 43657
# 53475
# 63970
# 75062
# 85065
# 93900
# 105855
# 117655
# 127577
# 139205
# 152557
# 162622
# 174240
# 185957
# 197637
# 210525
# 222315
# 234575
# 244160
# 256450
# 267175
#
# Disc length: 3755 seconds
#
#
# Revision: 4
# Processed by: cddbd v1.5.2PL0 Copyright (c) Steve Scherf et al.
# Submitted via: FreeRIP 2.96 
#
DISCID=460ea919
DTITLE=Various Artist - The Rhino Incredible Collections - Classic Country
DYEAR=1991
DGENRE=Country
TTITLE0=I Ain't Never - Webb Pierce
TTITLE1=He'll Have to Go - Jim Reeves
TTITLE2=Sea of Heartbreak - Don Gibson
TTITLE3=Devil Woman - Marty Robbins
TTITLE4=From a Jack to a King - Ned Miller
TTITLE5=Once a Day - Connie Smith
TTITLE6=King of the Road - Roger Miller
TTITLE7=You Ain't Woman Enough - Loretta Lynn
TTITLE8=Sam's Place - Buck Owens
TTITLE9=Stand By Your Man - Tammy Wynette
TTITLE10=Right or Wrong - Wanda Jackson
TTITLE11=Mama Tried - Merle Haggard
TTITLE12=New San Antonio Rose - Bob Wills and His Texas Playboys
TTITLE13=If You've Got the Money I've Got the Time - Lefty Frizzell
TTITLE14=Three Cigarettes in the Ashtray - Patsy Cline
TTITLE15=She Still Thinks I Care - George Jones
TTITLE16=Sixteen Tons - Tennesee Ernie Ford
TTITLE17=What Made Milwaukee Famous - Jerry Lee Lewis
TTITLE18=Crazy - Willie Nelson
TTITLE19=Ring Of Fire - Johnny Cash
TTITLE20=Steel Guitar Rag - Merle Travis
TTITLE21=Oh, Boy - Buddy Holly and The Crickets
TTITLE22=Hot Rod Lincoln - Commander Cody and His Lost Planet Airmen
TTITLE23=The Night Rider - Jimmy Bryant and Speedy West
TTITLE24=Walking The Floor Over You - Ernest Tubb
EXTD=
EXTT0=
EXTT1=
EXTT2=
EXTT3=
EXTT4=
EXTT5=
EXTT6=
EXTT7=
EXTT8=
EXTT9=
EXTT10=
EXTT11=
EXTT12=
EXTT13=
EXTT14=
EXTT15=
EXTT16=
EXTT17=
EXTT18=
EXTT19=
EXTT20=
EXTT21=
EXTT22=
EXTT23=
EXTT24=
PLAYORDER=
